<mxfile host="app.diagrams.net" modified="2022-06-15T10:30:11.839Z" agent="5.0 (Windows NT 10.0; Win64; x64) AppleWebKit/537.36 (KHTML, like Gecko) Chrome/102.0.5005.63 Safari/537.36 Edg/102.0.1245.39" etag="Oul-rFp7X4ienGHLlXp9" version="20.0.1" type="github">
  <diagram id="i5nLglHS9XAGzWQuGq0W" name="Page-1">
    <mxGraphModel dx="2500" dy="934" grid="1" gridSize="10" guides="1" tooltips="1" connect="1" arrows="1" fold="1" page="1" pageScale="1" pageWidth="827" pageHeight="1169" math="0" shadow="0">
      <root>
        <mxCell id="0" />
        <mxCell id="1" parent="0" />
        <mxCell id="m1CSbTF6fyn1C_nqHO2i-3" value="" style="edgeStyle=orthogonalEdgeStyle;rounded=0;orthogonalLoop=1;jettySize=auto;html=1;" parent="1" source="m1CSbTF6fyn1C_nqHO2i-1" target="m1CSbTF6fyn1C_nqHO2i-2" edge="1">
          <mxGeometry relative="1" as="geometry" />
        </mxCell>
        <mxCell id="m1CSbTF6fyn1C_nqHO2i-1" value="Resource.loader加载" style="whiteSpace=wrap;html=1;" parent="1" vertex="1">
          <mxGeometry x="170" y="130" width="120" height="60" as="geometry" />
        </mxCell>
        <mxCell id="m1CSbTF6fyn1C_nqHO2i-6" value="" style="edgeStyle=orthogonalEdgeStyle;rounded=0;orthogonalLoop=1;jettySize=auto;html=1;" parent="1" source="m1CSbTF6fyn1C_nqHO2i-2" target="m1CSbTF6fyn1C_nqHO2i-5" edge="1">
          <mxGeometry relative="1" as="geometry" />
        </mxCell>
        <mxCell id="m1CSbTF6fyn1C_nqHO2i-2" value="输出resourceInfo" style="whiteSpace=wrap;html=1;" parent="1" vertex="1">
          <mxGeometry x="170" y="270" width="120" height="60" as="geometry" />
        </mxCell>
        <mxCell id="m1CSbTF6fyn1C_nqHO2i-4" value="Vertical Container" style="swimlane;" parent="1" vertex="1">
          <mxGeometry x="-20" y="100" width="1410" height="2470" as="geometry" />
        </mxCell>
        <mxCell id="m1CSbTF6fyn1C_nqHO2i-28" value="&lt;span&gt;DefaultLoadResourceAgentHelper&lt;/span&gt;" style="text;html=1;align=center;verticalAlign=middle;resizable=0;points=[];autosize=1;strokeColor=none;fillColor=none;" parent="m1CSbTF6fyn1C_nqHO2i-4" vertex="1">
          <mxGeometry x="620" y="410" width="200" height="20" as="geometry" />
        </mxCell>
        <mxCell id="m1CSbTF6fyn1C_nqHO2i-25" value="读取二进制" style="whiteSpace=wrap;html=1;" parent="m1CSbTF6fyn1C_nqHO2i-4" vertex="1">
          <mxGeometry x="700" y="330" width="120" height="60" as="geometry" />
        </mxCell>
        <mxCell id="m1CSbTF6fyn1C_nqHO2i-23" value="从文件读取" style="whiteSpace=wrap;html=1;" parent="m1CSbTF6fyn1C_nqHO2i-4" vertex="1">
          <mxGeometry x="660" y="500" width="200" height="60" as="geometry" />
        </mxCell>
        <mxCell id="m1CSbTF6fyn1C_nqHO2i-34" value="Ab资源加载成功回调&lt;br&gt;LoadResourceAgent" style="whiteSpace=wrap;html=1;" parent="m1CSbTF6fyn1C_nqHO2i-4" vertex="1">
          <mxGeometry x="570" y="710" width="220" height="100" as="geometry" />
        </mxCell>
        <mxCell id="m1CSbTF6fyn1C_nqHO2i-36" value="LoadResourceAgent&lt;br&gt;资源就绪&lt;br&gt;" style="whiteSpace=wrap;html=1;" parent="m1CSbTF6fyn1C_nqHO2i-4" vertex="1">
          <mxGeometry x="470" y="920" width="120" height="60" as="geometry" />
        </mxCell>
        <mxCell id="m1CSbTF6fyn1C_nqHO2i-37" value="" style="edgeStyle=orthogonalEdgeStyle;rounded=0;orthogonalLoop=1;jettySize=auto;html=1;" parent="m1CSbTF6fyn1C_nqHO2i-4" source="m1CSbTF6fyn1C_nqHO2i-34" target="m1CSbTF6fyn1C_nqHO2i-36" edge="1">
          <mxGeometry relative="1" as="geometry" />
        </mxCell>
        <mxCell id="m1CSbTF6fyn1C_nqHO2i-47" value="AB.loadAssetbundle资源加载" style="whiteSpace=wrap;html=1;" parent="m1CSbTF6fyn1C_nqHO2i-4" vertex="1">
          <mxGeometry x="610" y="1270" width="120" height="60" as="geometry" />
        </mxCell>
        <mxCell id="m1CSbTF6fyn1C_nqHO2i-44" value="场景加载" style="whiteSpace=wrap;html=1;" parent="m1CSbTF6fyn1C_nqHO2i-4" vertex="1">
          <mxGeometry x="610" y="1360" width="120" height="60" as="geometry" />
        </mxCell>
        <mxCell id="m1CSbTF6fyn1C_nqHO2i-49" value="否" style="text;html=1;align=center;verticalAlign=middle;resizable=0;points=[];autosize=1;strokeColor=none;fillColor=none;" parent="m1CSbTF6fyn1C_nqHO2i-4" vertex="1">
          <mxGeometry x="570" y="1320" width="30" height="20" as="geometry" />
        </mxCell>
        <mxCell id="m1CSbTF6fyn1C_nqHO2i-46" value="是" style="text;html=1;align=center;verticalAlign=middle;resizable=0;points=[];autosize=1;strokeColor=none;fillColor=none;" parent="m1CSbTF6fyn1C_nqHO2i-4" vertex="1">
          <mxGeometry x="580" y="1390" width="30" height="20" as="geometry" />
        </mxCell>
        <mxCell id="m1CSbTF6fyn1C_nqHO2i-59" value="资源就绪" style="whiteSpace=wrap;html=1;" parent="m1CSbTF6fyn1C_nqHO2i-4" vertex="1">
          <mxGeometry x="830" y="1770" width="120" height="60" as="geometry" />
        </mxCell>
        <mxCell id="m1CSbTF6fyn1C_nqHO2i-63" value="资源解析&lt;br&gt;DefaultDataTableHelper" style="whiteSpace=wrap;html=1;" parent="m1CSbTF6fyn1C_nqHO2i-4" vertex="1">
          <mxGeometry x="830" y="2050" width="120" height="60" as="geometry" />
        </mxCell>
        <mxCell id="m1CSbTF6fyn1C_nqHO2i-50" value="检查AB包资源加载进度&lt;br&gt;updateUnityweb" style="whiteSpace=wrap;html=1;" parent="m1CSbTF6fyn1C_nqHO2i-4" vertex="1">
          <mxGeometry x="830" y="1500" width="120" height="60" as="geometry" />
        </mxCell>
        <mxCell id="m1CSbTF6fyn1C_nqHO2i-60" value="" style="edgeStyle=orthogonalEdgeStyle;rounded=0;orthogonalLoop=1;jettySize=auto;html=1;" parent="m1CSbTF6fyn1C_nqHO2i-4" source="m1CSbTF6fyn1C_nqHO2i-52" target="m1CSbTF6fyn1C_nqHO2i-59" edge="1">
          <mxGeometry relative="1" as="geometry" />
        </mxCell>
        <mxCell id="m1CSbTF6fyn1C_nqHO2i-52" value="加载完成回调" style="whiteSpace=wrap;html=1;" parent="m1CSbTF6fyn1C_nqHO2i-4" vertex="1">
          <mxGeometry x="830" y="1640" width="120" height="60" as="geometry" />
        </mxCell>
        <mxCell id="m1CSbTF6fyn1C_nqHO2i-53" value="" style="edgeStyle=orthogonalEdgeStyle;rounded=0;orthogonalLoop=1;jettySize=auto;html=1;" parent="m1CSbTF6fyn1C_nqHO2i-4" source="m1CSbTF6fyn1C_nqHO2i-50" target="m1CSbTF6fyn1C_nqHO2i-52" edge="1">
          <mxGeometry relative="1" as="geometry" />
        </mxCell>
        <mxCell id="m1CSbTF6fyn1C_nqHO2i-54" value="对象池注册&lt;br&gt;资源+以来资源" style="whiteSpace=wrap;html=1;" parent="m1CSbTF6fyn1C_nqHO2i-4" vertex="1">
          <mxGeometry x="1030" y="1640" width="120" height="60" as="geometry" />
        </mxCell>
        <mxCell id="m1CSbTF6fyn1C_nqHO2i-55" value="" style="edgeStyle=orthogonalEdgeStyle;rounded=0;orthogonalLoop=1;jettySize=auto;html=1;" parent="m1CSbTF6fyn1C_nqHO2i-4" source="m1CSbTF6fyn1C_nqHO2i-52" target="m1CSbTF6fyn1C_nqHO2i-54" edge="1">
          <mxGeometry relative="1" as="geometry" />
        </mxCell>
        <mxCell id="m1CSbTF6fyn1C_nqHO2i-64" value="" style="edgeStyle=orthogonalEdgeStyle;rounded=0;orthogonalLoop=1;jettySize=auto;html=1;" parent="m1CSbTF6fyn1C_nqHO2i-4" source="m1CSbTF6fyn1C_nqHO2i-61" target="m1CSbTF6fyn1C_nqHO2i-63" edge="1">
          <mxGeometry relative="1" as="geometry" />
        </mxCell>
        <mxCell id="m1CSbTF6fyn1C_nqHO2i-61" value="loadAssetTask加载成功回调" style="whiteSpace=wrap;html=1;" parent="m1CSbTF6fyn1C_nqHO2i-4" vertex="1">
          <mxGeometry x="830" y="1910" width="120" height="60" as="geometry" />
        </mxCell>
        <mxCell id="m1CSbTF6fyn1C_nqHO2i-62" value="" style="edgeStyle=orthogonalEdgeStyle;rounded=0;orthogonalLoop=1;jettySize=auto;html=1;" parent="m1CSbTF6fyn1C_nqHO2i-4" source="m1CSbTF6fyn1C_nqHO2i-59" target="m1CSbTF6fyn1C_nqHO2i-61" edge="1">
          <mxGeometry relative="1" as="geometry" />
        </mxCell>
        <mxCell id="m1CSbTF6fyn1C_nqHO2i-66" value="" style="edgeStyle=orthogonalEdgeStyle;rounded=0;orthogonalLoop=1;jettySize=auto;html=1;entryX=0.5;entryY=0;entryDx=0;entryDy=0;" parent="m1CSbTF6fyn1C_nqHO2i-4" source="m1CSbTF6fyn1C_nqHO2i-47" target="m1CSbTF6fyn1C_nqHO2i-50" edge="1">
          <mxGeometry relative="1" as="geometry">
            <mxPoint x="810" y="1300" as="targetPoint" />
          </mxGeometry>
        </mxCell>
        <mxCell id="m1CSbTF6fyn1C_nqHO2i-11" value="" style="edgeStyle=orthogonalEdgeStyle;rounded=0;orthogonalLoop=1;jettySize=auto;html=1;" parent="1" source="m1CSbTF6fyn1C_nqHO2i-5" target="m1CSbTF6fyn1C_nqHO2i-10" edge="1">
          <mxGeometry relative="1" as="geometry" />
        </mxCell>
        <mxCell id="m1CSbTF6fyn1C_nqHO2i-16" value="" style="edgeStyle=orthogonalEdgeStyle;rounded=0;orthogonalLoop=1;jettySize=auto;html=1;" parent="1" source="m1CSbTF6fyn1C_nqHO2i-5" target="m1CSbTF6fyn1C_nqHO2i-15" edge="1">
          <mxGeometry relative="1" as="geometry" />
        </mxCell>
        <mxCell id="m1CSbTF6fyn1C_nqHO2i-5" value="加载资源&lt;br&gt;" style="whiteSpace=wrap;html=1;" parent="1" vertex="1">
          <mxGeometry x="170" y="410" width="120" height="60" as="geometry" />
        </mxCell>
        <mxCell id="m1CSbTF6fyn1C_nqHO2i-10" value="加载依赖资源" style="whiteSpace=wrap;html=1;" parent="1" vertex="1">
          <mxGeometry x="370" y="410" width="120" height="60" as="geometry" />
        </mxCell>
        <mxCell id="m1CSbTF6fyn1C_nqHO2i-18" value="" style="edgeStyle=orthogonalEdgeStyle;rounded=0;orthogonalLoop=1;jettySize=auto;html=1;" parent="1" source="m1CSbTF6fyn1C_nqHO2i-15" target="m1CSbTF6fyn1C_nqHO2i-17" edge="1">
          <mxGeometry relative="1" as="geometry" />
        </mxCell>
        <mxCell id="m1CSbTF6fyn1C_nqHO2i-15" value="创建mainTask 加载任务" style="whiteSpace=wrap;html=1;" parent="1" vertex="1">
          <mxGeometry x="170" y="550" width="120" height="60" as="geometry" />
        </mxCell>
        <mxCell id="m1CSbTF6fyn1C_nqHO2i-22" value="" style="edgeStyle=orthogonalEdgeStyle;rounded=0;orthogonalLoop=1;jettySize=auto;html=1;" parent="1" source="m1CSbTF6fyn1C_nqHO2i-17" target="m1CSbTF6fyn1C_nqHO2i-21" edge="1">
          <mxGeometry relative="1" as="geometry" />
        </mxCell>
        <mxCell id="m1CSbTF6fyn1C_nqHO2i-17" value="LoadResourceAgent&lt;br&gt;" style="whiteSpace=wrap;html=1;" parent="1" vertex="1">
          <mxGeometry x="170" y="690" width="120" height="60" as="geometry" />
        </mxCell>
        <mxCell id="m1CSbTF6fyn1C_nqHO2i-24" value="" style="edgeStyle=orthogonalEdgeStyle;rounded=0;orthogonalLoop=1;jettySize=auto;html=1;" parent="1" source="m1CSbTF6fyn1C_nqHO2i-21" target="m1CSbTF6fyn1C_nqHO2i-23" edge="1">
          <mxGeometry relative="1" as="geometry" />
        </mxCell>
        <mxCell id="m1CSbTF6fyn1C_nqHO2i-26" value="" style="edgeStyle=orthogonalEdgeStyle;rounded=0;orthogonalLoop=1;jettySize=auto;html=1;" parent="1" source="m1CSbTF6fyn1C_nqHO2i-21" target="m1CSbTF6fyn1C_nqHO2i-25" edge="1">
          <mxGeometry relative="1" as="geometry" />
        </mxCell>
        <mxCell id="m1CSbTF6fyn1C_nqHO2i-33" value="" style="edgeStyle=orthogonalEdgeStyle;rounded=0;orthogonalLoop=1;jettySize=auto;html=1;" parent="1" source="m1CSbTF6fyn1C_nqHO2i-21" target="m1CSbTF6fyn1C_nqHO2i-32" edge="1">
          <mxGeometry relative="1" as="geometry" />
        </mxCell>
        <mxCell id="m1CSbTF6fyn1C_nqHO2i-21" value="文件读取" style="rhombus;whiteSpace=wrap;html=1;" parent="1" vertex="1">
          <mxGeometry x="390" y="680" width="80" height="80" as="geometry" />
        </mxCell>
        <mxCell id="m1CSbTF6fyn1C_nqHO2i-27" value="是" style="text;html=1;align=center;verticalAlign=middle;resizable=0;points=[];autosize=1;strokeColor=none;fillColor=none;" parent="1" vertex="1">
          <mxGeometry x="475" y="680" width="30" height="20" as="geometry" />
        </mxCell>
        <mxCell id="m1CSbTF6fyn1C_nqHO2i-29" value="内存" style="text;html=1;align=center;verticalAlign=middle;resizable=0;points=[];autosize=1;strokeColor=none;fillColor=none;" parent="1" vertex="1">
          <mxGeometry x="430" y="780" width="40" height="20" as="geometry" />
        </mxCell>
        <mxCell id="m1CSbTF6fyn1C_nqHO2i-35" value="" style="edgeStyle=orthogonalEdgeStyle;rounded=0;orthogonalLoop=1;jettySize=auto;html=1;" parent="1" source="m1CSbTF6fyn1C_nqHO2i-32" target="m1CSbTF6fyn1C_nqHO2i-34" edge="1">
          <mxGeometry relative="1" as="geometry" />
        </mxCell>
        <mxCell id="m1CSbTF6fyn1C_nqHO2i-32" value="Assetbundle加载资源&lt;span&gt; &lt;/span&gt;UpdateFileAssetBundleCreateRequest" style="whiteSpace=wrap;html=1;" parent="1" vertex="1">
          <mxGeometry x="370" y="850" width="120" height="60" as="geometry" />
        </mxCell>
        <mxCell id="m1CSbTF6fyn1C_nqHO2i-41" value="" style="edgeStyle=orthogonalEdgeStyle;rounded=0;orthogonalLoop=1;jettySize=auto;html=1;" parent="1" source="m1CSbTF6fyn1C_nqHO2i-38" target="m1CSbTF6fyn1C_nqHO2i-40" edge="1">
          <mxGeometry relative="1" as="geometry" />
        </mxCell>
        <mxCell id="m1CSbTF6fyn1C_nqHO2i-38" value="加载Main-AB资源" style="whiteSpace=wrap;html=1;" parent="1" vertex="1">
          <mxGeometry x="370" y="1320" width="120" height="60" as="geometry" />
        </mxCell>
        <mxCell id="m1CSbTF6fyn1C_nqHO2i-39" value="" style="edgeStyle=orthogonalEdgeStyle;rounded=0;orthogonalLoop=1;jettySize=auto;html=1;" parent="1" source="m1CSbTF6fyn1C_nqHO2i-36" target="m1CSbTF6fyn1C_nqHO2i-38" edge="1">
          <mxGeometry relative="1" as="geometry" />
        </mxCell>
        <mxCell id="m1CSbTF6fyn1C_nqHO2i-43" value="" style="edgeStyle=orthogonalEdgeStyle;rounded=0;orthogonalLoop=1;jettySize=auto;html=1;" parent="1" source="m1CSbTF6fyn1C_nqHO2i-40" target="m1CSbTF6fyn1C_nqHO2i-42" edge="1">
          <mxGeometry relative="1" as="geometry" />
        </mxCell>
        <mxCell id="m1CSbTF6fyn1C_nqHO2i-40" value="DefaultLoadResourceAgentHelper&lt;br&gt;加载AB包资源" style="whiteSpace=wrap;html=1;" parent="1" vertex="1">
          <mxGeometry x="370" y="1460" width="120" height="60" as="geometry" />
        </mxCell>
        <mxCell id="m1CSbTF6fyn1C_nqHO2i-45" value="" style="edgeStyle=orthogonalEdgeStyle;rounded=0;orthogonalLoop=1;jettySize=auto;html=1;" parent="1" source="m1CSbTF6fyn1C_nqHO2i-42" target="m1CSbTF6fyn1C_nqHO2i-44" edge="1">
          <mxGeometry relative="1" as="geometry" />
        </mxCell>
        <mxCell id="m1CSbTF6fyn1C_nqHO2i-48" value="" style="edgeStyle=orthogonalEdgeStyle;rounded=0;orthogonalLoop=1;jettySize=auto;html=1;" parent="1" source="m1CSbTF6fyn1C_nqHO2i-42" target="m1CSbTF6fyn1C_nqHO2i-47" edge="1">
          <mxGeometry relative="1" as="geometry" />
        </mxCell>
        <mxCell id="m1CSbTF6fyn1C_nqHO2i-42" value="是否场景资源" style="rhombus;whiteSpace=wrap;html=1;" parent="1" vertex="1">
          <mxGeometry x="390" y="1590" width="80" height="80" as="geometry" />
        </mxCell>
        <mxCell id="m1CSbTF6fyn1C_nqHO2i-70" value="" style="edgeStyle=orthogonalEdgeStyle;rounded=0;orthogonalLoop=1;jettySize=auto;html=1;" parent="1" source="m1CSbTF6fyn1C_nqHO2i-67" target="m1CSbTF6fyn1C_nqHO2i-69" edge="1">
          <mxGeometry relative="1" as="geometry" />
        </mxCell>
        <mxCell id="m1CSbTF6fyn1C_nqHO2i-67" value="资源转换为TextAsset" style="whiteSpace=wrap;html=1;" parent="1" vertex="1">
          <mxGeometry x="1040" y="2340" width="120" height="60" as="geometry" />
        </mxCell>
        <mxCell id="m1CSbTF6fyn1C_nqHO2i-68" value="" style="edgeStyle=orthogonalEdgeStyle;rounded=0;orthogonalLoop=1;jettySize=auto;html=1;" parent="1" source="m1CSbTF6fyn1C_nqHO2i-63" target="m1CSbTF6fyn1C_nqHO2i-67" edge="1">
          <mxGeometry relative="1" as="geometry" />
        </mxCell>
        <mxCell id="m1CSbTF6fyn1C_nqHO2i-69" value="Data表添加数据" style="whiteSpace=wrap;html=1;" parent="1" vertex="1">
          <mxGeometry x="1040" y="2480" width="120" height="60" as="geometry" />
        </mxCell>
        <mxCell id="BYrf3JwLTzcs74saTcUr-3" value="" style="edgeStyle=orthogonalEdgeStyle;rounded=0;orthogonalLoop=1;jettySize=auto;html=1;" edge="1" parent="1" source="BYrf3JwLTzcs74saTcUr-1" target="BYrf3JwLTzcs74saTcUr-2">
          <mxGeometry relative="1" as="geometry" />
        </mxCell>
        <mxCell id="BYrf3JwLTzcs74saTcUr-1" value="原理" style="whiteSpace=wrap;html=1;" vertex="1" parent="1">
          <mxGeometry x="400" y="20" width="120" height="60" as="geometry" />
        </mxCell>
        <mxCell id="BYrf3JwLTzcs74saTcUr-2" value="AB包路径（全名，变体）加载," style="ellipse;whiteSpace=wrap;html=1;" vertex="1" parent="1">
          <mxGeometry x="600" y="20" width="120" height="60" as="geometry" />
        </mxCell>
      </root>
    </mxGraphModel>
  </diagram>
</mxfile>
